<svg width="131" height="128" viewBox="0 0 131 128" fill="none" xmlns="http://www.w3.org/2000/svg">
<path d="M47.4032 114.003C44.6992 113.017 42.2184 114.107 41.3287 116.564C40.4748 118.887 41.4895 121.152 43.6776 121.95C44.7449 122.339 45.8263 122.23 46.4718 121.787L46.5429 121.813L45.1188 124.74L39.8117 122.804L39.0458 124.903L46.47 127.611L49.3816 121.417L47.2479 120.175C46.6904 120.543 45.8523 120.593 45.1348 120.331C43.9154 119.88 43.3601 118.676 43.8253 117.401C44.286 116.138 45.4639 115.58 46.6676 116.019C47.6876 116.391 48.2782 117.333 47.9935 118.297L50.484 119.206C51.2024 117.089 49.9174 114.92 47.4032 114.003Z" fill="black"/>
<path d="M27.0459 118.175L28.9887 108.778L31.9937 105.335L29.9488 103.55L26.9438 106.993L17.8961 110.189L20.2025 112.202L26.0842 109.946L26.1793 110.029L24.7394 116.162L27.0459 118.175Z" fill="black"/>
<path d="M24.9579 98.4965L19.9891 91.3112L18.1357 92.5929L21.5499 97.5302L19.0112 99.2858L15.8662 94.7379L14.0128 96.0195L17.1578 100.567L14.6242 102.319L11.2244 97.4029L9.37092 98.6846L14.3253 105.849L24.9579 98.4965Z" fill="black"/>
<path d="M17.5442 86.2665L14.4466 86.3875L12.8309 82.0116L15.2638 80.0905L14.2493 77.343L3.66601 86.0013L4.88605 89.3054L18.5588 89.014L17.5442 86.2665ZM12.2047 86.4752L7.0647 86.6775L7.02972 86.5828L11.0678 83.3961L12.2047 86.4752Z" fill="black"/>
<path d="M13.9308 74.9739L13.668 72.2535L9.10667 72.6941L8.91488 70.7087L13.2408 67.8303L12.9506 64.8271L8.2135 68.0433C7.4438 66.6401 6.09009 65.9528 4.33089 66.1227C1.77376 66.3697 0.290911 68.2188 0.573129 71.1404L1.06352 76.2169L13.9308 74.9739ZM6.92023 72.9053L3.02486 73.2816L2.84764 71.447C2.69591 69.8763 3.31987 69.0487 4.60157 68.9249C5.87699 68.8017 6.59128 69.5 6.7418 71.0581L6.92023 72.9053Z" fill="black"/>
<path d="M5.05184 53.9152L5.44034 51.3247C3.15629 51.0204 1.30238 52.6572 0.875489 55.5037C0.455153 58.3065 1.69525 60.5924 4.01926 60.9281C5.9035 61.2171 7.18282 60.0495 8.02484 57.9673L8.58317 56.6277C9.12902 55.2862 9.64461 54.5721 10.507 54.695C11.4424 54.8417 11.9462 55.8236 11.7402 57.1969C11.5296 58.6014 10.7287 59.5153 9.43595 59.4108L9.0437 62.0263C11.8193 62.3724 13.5456 60.608 14.0109 57.5055C14.4789 54.3844 13.2623 52.3254 10.9223 51.9681C8.79277 51.6551 7.42232 53.0899 6.58966 55.2373L6.14274 56.3447C5.72017 57.4174 5.16869 58.2858 4.25388 58.1294C3.4299 58.0058 2.93393 57.1847 3.13239 55.8613C3.32618 54.5692 4.03185 53.8644 5.05184 53.9152Z" fill="black"/>
<path d="M18.6316 42.016L16.5565 39.7131L18.8854 35.6713L21.9185 36.3117L23.3807 33.774L9.95496 31.1813L8.19653 34.2331L17.1694 44.5537L18.6316 42.016ZM15.0546 38.0463L11.6101 34.2258L11.6605 34.1383L16.6933 35.2023L15.0546 38.0463Z" fill="black"/>
<path d="M23.3841 20.5508L25.2266 18.6889C23.5624 17.0952 21.0998 17.3224 19.0752 19.3683C17.0817 21.3829 16.7337 23.9601 18.4116 25.6027C19.7621 26.948 21.484 26.7605 23.3926 25.5766L24.634 24.8247C25.8663 24.0639 26.704 23.7917 27.3276 24.3999C27.9962 25.0704 27.8234 26.1604 26.8466 27.1474C25.8476 28.1569 24.6618 28.422 23.6798 27.5747L21.8195 29.4546C23.856 31.3721 26.2909 30.9665 28.4975 28.7367C30.7174 26.4933 30.9504 24.1131 29.2723 22.4437C27.7379 20.9342 25.7848 21.2836 23.8453 22.5257L22.8309 23.1559C21.8567 23.7725 20.899 24.148 20.2528 23.4819C19.6605 22.8958 19.7448 21.9402 20.686 20.989C21.6051 20.0603 22.5907 19.9078 23.3841 20.5508Z" fill="black"/>
<path d="M41.3694 18.9597L41.0534 15.8759L45.3188 13.9876L47.3894 16.2946L50.0675 15.109L40.7595 5.09235L37.5389 6.51816L38.6913 20.1453L41.3694 18.9597ZM40.8247 13.644L40.2989 8.5269L40.3912 8.48601L43.826 12.3152L40.8247 13.644Z" fill="black"/>
<path d="M61.2131 0.224132L58.5207 0.614622L59.6877 8.66044L59.5752 8.67674L52.8862 1.43184L50.5124 1.77612L52.3679 14.5695L55.0728 14.1772L53.9049 6.1251L53.9986 6.11151L60.7323 13.3563L63.0686 13.0175L61.2131 0.224132Z" fill="black"/>
<path d="M74.9077 14.0367L76.5539 11.4099L81.0791 12.5421L81.2944 15.6346L84.1357 16.3454L82.9502 2.72317L79.5333 1.8683L72.0665 13.3258L74.9077 14.0367ZM77.7453 9.50875L80.4758 5.14922L80.5737 5.17373L80.9295 10.3054L77.7453 9.50875Z" fill="black"/>
<path d="M86.272 17.418L88.6671 18.7345L90.8745 14.7186L92.6225 15.6794L92.5613 20.875L95.2054 22.3284L95.2194 16.6026C96.8123 16.7579 98.1431 16.0272 98.9944 14.4784C100.232 12.227 99.5405 9.95988 96.9683 8.54606L92.4988 6.08936L86.272 17.418ZM91.9326 12.7936L93.8177 9.36406L95.4329 10.2519C96.8158 11.012 97.1476 11.9939 96.5274 13.1223C95.9101 14.2452 94.9307 14.4416 93.5589 13.6875L91.9326 12.7936Z" fill="black"/>
<path d="M104.164 15.7784L107.066 18.4695L99.8078 26.2958L101.789 28.1329L109.047 20.3066L111.949 22.9977L113.481 21.3455L105.696 14.1261L104.164 15.7784Z" fill="black"/>
<path d="M112.867 42.0005C114.577 45.5486 117.808 46.6399 121.447 44.8857C125.074 43.137 126.222 39.9352 124.528 36.4213L122.522 32.2592L110.877 37.8725L112.867 42.0005ZM114.173 39.3177L121.599 35.7381L122.355 37.3074C123.408 39.4908 122.85 41.1823 120.263 42.4294C117.664 43.682 115.982 43.0704 114.927 40.8813L114.173 39.3177Z" fill="black"/>
<path d="M128.565 50.3529L127.881 47.7068L115.365 50.9433L116.049 53.5894L128.565 50.3529Z" fill="black"/>
<path d="M116.917 57.0255L117.106 59.7521L121.677 59.4353L121.815 61.4251L117.413 64.1852L117.622 67.1951L122.444 64.1086C123.176 65.5322 124.51 66.2559 126.273 66.1337C128.836 65.9561 130.369 64.1479 130.166 61.2198L129.813 56.1318L116.917 57.0255ZM123.869 59.2834L127.773 59.0129L127.9 60.8516C128.009 62.4259 127.363 63.2363 126.079 63.3253C124.8 63.4139 124.105 62.6964 123.997 61.1348L123.869 59.2834Z" fill="black"/>
<path d="M117.353 69.8085L115.876 78.4188L118.097 78.7997L119.112 72.8832L122.154 73.405L121.219 78.8548L123.44 79.2357L124.375 73.7859L127.411 74.3066L126.4 80.1981L128.621 80.579L130.094 71.9937L117.353 69.8085Z" fill="black"/>
<path d="M117.984 95.5542C120.854 96.4551 123.348 95.1024 124.58 92.3756C125.985 89.2634 124.861 85.8951 121.007 84.1544C117.164 82.419 113.9 83.7569 112.476 86.9093C111.112 89.9295 112.296 92.6598 114.343 93.9096L115.492 91.3951C114.339 90.5903 114.061 89.2735 114.661 87.9447C115.469 86.1556 117.346 85.5419 119.866 86.6799C122.317 87.7866 123.174 89.6145 122.351 91.4381C121.735 92.8015 120.502 93.4292 119.122 93.0345L117.984 95.5542Z" fill="black"/>
<path d="M117.176 100.965L114.673 104.031L106.405 97.2808L104.696 99.3734L112.964 106.124L110.461 109.19L112.207 110.615L118.921 102.391L117.176 100.965Z" fill="black"/>
<path d="M95.3759 115.453C97.8314 118.896 101.369 119.335 104.16 117.345C106.966 115.343 107.688 111.867 105.233 108.423C102.788 104.996 99.2547 104.531 96.4487 106.532C93.6582 108.522 92.9203 112.01 95.3759 115.453ZM97.6319 113.844C96.0413 111.614 96.2387 109.651 97.8524 108.5C99.4713 107.346 101.386 107.802 102.977 110.032C104.567 112.263 104.375 114.222 102.756 115.376C101.142 116.527 99.2225 116.074 97.6319 113.844Z" fill="black"/>
<path d="M89.6948 111.536L87.1301 112.481L88.7139 116.781L86.8421 117.471L82.9602 114.017L80.1289 115.059L84.442 118.825C83.28 119.926 82.9588 121.41 83.5696 123.068C84.4575 125.479 86.6223 126.444 89.3766 125.43L94.1625 123.667L89.6948 111.536ZM89.473 118.842L90.8256 122.515L89.096 123.152C87.6152 123.697 86.6564 123.304 86.2113 122.095C85.7685 120.893 86.2627 120.025 87.7316 119.484L89.473 118.842Z" fill="black"/>
<circle cx="67" cy="125" r="2" fill="black"/>
</svg>
