<svg width="329" height="560" viewBox="0 0 329 560" fill="none" xmlns="http://www.w3.org/2000/svg">
<g clip-path="url(#clip0)">
<g opacity="0.7">
<path fill-rule="evenodd" clip-rule="evenodd" d="M328.697 330.914L247.678 414.084L237.081 561.32L328.697 330.914Z" fill="url(#paint0_linear)"/>
<path fill-rule="evenodd" clip-rule="evenodd" d="M237.081 561.321L129.961 466.438L8.00049 466.438L237.081 561.321Z" fill="url(#paint1_linear)"/>
<path fill-rule="evenodd" clip-rule="evenodd" d="M-0.166329 -0.0897998L116.678 492.001L8.00073 466.438L-0.166329 -0.0897998Z" fill="url(#paint2_linear)"/>
<path fill-rule="evenodd" clip-rule="evenodd" d="M328.697 330.914L271.477 426.584L-0.166504 -0.0898438L328.697 330.914Z" fill="url(#paint3_linear)"/>
<path fill-rule="evenodd" clip-rule="evenodd" d="M270.992 425.436L116.193 490.853L-0.651547 -1.23789L270.992 425.436Z" fill="url(#paint4_linear)"/>
<path fill-rule="evenodd" clip-rule="evenodd" d="M270.992 425.436L116.193 490.853L236.515 559.982L270.992 425.436Z" fill="url(#paint5_linear)"/>
</g>
</g>
<defs>
<linearGradient id="paint0_linear" x1="323.194" y1="348.562" x2="317.256" y2="527.439" gradientUnits="userSpaceOnUse">
<stop stop-color="#0011FF"/>
<stop offset="1"/>
</linearGradient>
<linearGradient id="paint1_linear" x1="50.0019" y1="666.175" x2="81.0969" y2="362.999" gradientUnits="userSpaceOnUse">
<stop stop-color="#0011FF"/>
<stop offset="1"/>
</linearGradient>
<linearGradient id="paint2_linear" x1="-192.095" y1="842.751" x2="-145.452" y2="-241.133" gradientUnits="userSpaceOnUse">
<stop stop-color="#0011FF"/>
<stop offset="1"/>
</linearGradient>
<linearGradient id="paint3_linear" x1="-72.157" y1="277.488" x2="164.387" y2="90.9174" gradientUnits="userSpaceOnUse">
<stop offset="0.403031" stop-color="#0011FF"/>
<stop offset="1"/>
</linearGradient>
<linearGradient id="paint4_linear" x1="-128.5" y1="-81" x2="234.351" y2="540.13" gradientUnits="userSpaceOnUse">
<stop stop-color="#0011FF"/>
<stop offset="1"/>
</linearGradient>
<linearGradient id="paint5_linear" x1="215.472" y1="311.914" x2="169.94" y2="640.633" gradientUnits="userSpaceOnUse">
<stop stop-color="#0011FF"/>
<stop offset="1"/>
</linearGradient>
<clipPath id="clip0">
<rect width="329" height="560" fill="white"/>
</clipPath>
</defs>
</svg>
