<svg width="369" height="408" viewBox="0 0 369 408" fill="none" xmlns="http://www.w3.org/2000/svg">
<g clip-path="url(#clip0)">
<g opacity="0.7">
<path fill-rule="evenodd" clip-rule="evenodd" d="M365.817 187.211L251.347 239.87L174.033 408.134L288.503 355.475L365.817 187.211Z" fill="url(#paint0_linear)"/>
<path fill-rule="evenodd" clip-rule="evenodd" d="M251.044 240.115L111.643 176.063L276.432 0.933613L251.044 240.115Z" fill="url(#paint1_linear)"/>
<path fill-rule="evenodd" clip-rule="evenodd" d="M173.801 408.22L34.4004 344.167L91.6336 403.118L173.801 408.22Z" fill="url(#paint2_linear)"/>
<path fill-rule="evenodd" clip-rule="evenodd" d="M77.1836 54.5886L111.788 175.745L34.4738 344.009L-0.131041 222.853L77.1836 54.5886Z" fill="url(#paint3_linear)"/>
<path d="M251.202 240.187L111.643 176.062L34.4008 344.168L173.96 408.293L251.202 240.187Z" fill="url(#paint4_linear)"/>
<path fill-rule="evenodd" clip-rule="evenodd" d="M365.976 187.284L251.189 239.797L276.65 0.457031L365.976 187.284Z" fill="url(#paint5_linear)"/>
<path fill-rule="evenodd" clip-rule="evenodd" d="M76.7071 54.3704L111.788 175.745L276.649 0.457608L76.7071 54.3704Z" fill="url(#paint6_linear)"/>
</g>
</g>
<defs>
<linearGradient id="paint0_linear" x1="328.548" y1="170.087" x2="211.301" y2="425.258" gradientUnits="userSpaceOnUse">
<stop stop-color="#0011FF"/>
<stop offset="1"/>
</linearGradient>
<linearGradient id="paint1_linear" x1="289.5" y1="-8" x2="63.413" y2="103.35" gradientUnits="userSpaceOnUse">
<stop stop-color="#0011FF"/>
<stop offset="1"/>
</linearGradient>
<linearGradient id="paint2_linear" x1="461.5" y1="194.5" x2="4.99948" y2="399" gradientUnits="userSpaceOnUse">
<stop stop-color="#0011FF"/>
<stop offset="1"/>
</linearGradient>
<linearGradient id="paint3_linear" x1="132.5" y1="-22" x2="62.4998" y2="386" gradientUnits="userSpaceOnUse">
<stop stop-color="#0011FF"/>
<stop offset="1"/>
</linearGradient>
<linearGradient id="paint4_linear" x1="-108" y1="176" x2="313" y2="309.5" gradientUnits="userSpaceOnUse">
<stop stop-color="#0011FF"/>
<stop offset="1"/>
</linearGradient>
<linearGradient id="paint5_linear" x1="88.3069" y1="28.5038" x2="474.152" y2="49.8017" gradientUnits="userSpaceOnUse">
<stop offset="0.403031" stop-color="#0011FF"/>
<stop offset="1"/>
</linearGradient>
<linearGradient id="paint6_linear" x1="-276.814" y1="99.3093" x2="52.314" y2="-321.612" gradientUnits="userSpaceOnUse">
<stop stop-color="#0011FF"/>
<stop offset="1"/>
</linearGradient>
<clipPath id="clip0">
<rect width="369" height="408" fill="white"/>
</clipPath>
</defs>
</svg>
